<svg width="14" height="13" viewBox="0 0 14 13" fill="none" xmlns="http://www.w3.org/2000/svg">
<g clip-path="url(#clip0_24_2961)">
<path d="M13.4986 8.42C13.4986 9.25 13.1811 10.3775 12.5461 11.8025C12.5311 11.8375 12.5048 11.8975 12.4673 11.9825C12.4298 12.0675 12.3961 12.1425 12.3661 12.2075C12.3361 12.2725 12.3036 12.3275 12.2686 12.3725C12.2086 12.4575 12.1386 12.5 12.0586 12.5C11.9836 12.5 11.9248 12.475 11.8823 12.425C11.8398 12.375 11.8186 12.3125 11.8186 12.2375C11.8186 12.1925 11.8248 12.1262 11.8373 12.0387C11.8498 11.9513 11.8561 11.8925 11.8561 11.8625C11.8811 11.5225 11.8936 11.215 11.8936 10.94C11.8936 10.435 11.8498 9.9825 11.7623 9.5825C11.6748 9.1825 11.5536 8.83625 11.3986 8.54375C11.2436 8.25125 11.0436 7.99875 10.7986 7.78625C10.5536 7.57375 10.2898 7.4 10.0073 7.265C9.72484 7.13 9.39234 7.02375 9.00984 6.94625C8.62734 6.86875 8.24234 6.815 7.85484 6.785C7.46734 6.755 7.02859 6.74 6.53859 6.74H4.85859V8.66C4.85859 8.79 4.81109 8.9025 4.71609 8.9975C4.62109 9.0925 4.50859 9.14 4.37859 9.14C4.24859 9.14 4.13609 9.0925 4.04109 8.9975L0.201094 5.1575C0.106094 5.0625 0.0585938 4.95 0.0585938 4.82C0.0585938 4.69 0.106094 4.5775 0.201094 4.4825L4.04109 0.6425C4.13609 0.5475 4.24859 0.5 4.37859 0.5C4.50859 0.5 4.62109 0.5475 4.71609 0.6425C4.81109 0.7375 4.85859 0.85 4.85859 0.98V2.9H6.53859C10.1036 2.9 12.2911 3.9075 13.1011 5.9225C13.3661 6.5925 13.4986 7.425 13.4986 8.42Z" fill="#6C6363"/>
</g>
<defs>
<clipPath id="clip0_24_2961">
<rect width="13.56" height="12" fill="white" transform="translate(0 0.5)"/>
</clipPath>
</defs>
</svg>
