<svg width="56" height="56" viewBox="0 0 56 56" fill="none" xmlns="http://www.w3.org/2000/svg">
<g clip-path="url(#clip0_128_2239)">
<path d="M25.634 12.3583L0.887886 37.1049C0.315077 37.6772 -0.00048853 38.4413 -0.000488495 39.2559C-0.000488459 40.0706 0.315077 40.8347 0.887886 41.407L2.70985 43.2294C3.89706 44.4153 5.82662 44.4153 7.01202 43.2294L27.7923 22.4492L48.5956 43.2525C49.1685 43.8248 49.9321 44.1409 50.7463 44.1409C51.5614 44.1409 52.325 43.8248 52.8983 43.2525L54.7198 41.4301C55.2926 40.8573 55.6082 40.0937 55.6082 39.279C55.6082 38.4643 55.2926 37.7003 54.7198 37.1279L29.9511 12.3583C29.3765 11.7846 28.6092 11.4695 27.7937 11.4713C26.9749 11.4695 26.2081 11.7846 25.634 12.3583Z" fill="white"/>
</g>
<defs>
<clipPath id="clip0_128_2239">
<rect width="55.6086" height="55.6086" fill="white" transform="translate(0 55.6086) rotate(-90)"/>
</clipPath>
</defs>
</svg>
